<?xml version="1.0" encoding="utf-8"?>
<svg width="33" height="36" viewBox="0 0 33 36" fill="none" xmlns="http://www.w3.org/2000/svg">
  <path d="M22.3983 12.0331C23.5773 12.7267 23.5773 14.3912 22.3983 15.0847L18.3411 17.4428L14.2839 19.8008C13.1049 20.4943 11.6484 19.6274 11.6484 18.275V13.5589V8.84284C11.6484 7.49044 13.1049 6.65819 14.2839 7.31705L18.3411 9.67509L22.3983 12.0331Z" style="fill: rgb(182, 245, 0);"/>
  <path d="M2.32173 4.02233C3.43247 4.02233 4.33291 3.1219 4.33291 2.01117C4.33291 0.90043 3.43247 0 2.32173 0C1.21099 0 0.310547 0.90043 0.310547 2.01117C0.310547 3.1219 1.21099 4.02233 2.32173 4.02233Z" style="fill: rgb(182, 245, 0);"/>
  <path d="M16.5063 32.7326C14.5643 32.7326 12.7264 32.4899 11.0273 31.9697C9.95228 31.6576 9.36277 30.548 9.67486 29.473C9.98695 28.398 11.0966 27.8085 12.1716 28.1206C13.524 28.502 14.9805 28.7101 16.5409 28.7101C24.0658 28.7101 28.8513 24.5488 28.8513 17.232C28.8513 16.1223 29.7529 15.2207 30.8626 15.2207C31.9722 15.2207 32.8738 16.1223 32.8738 17.232C32.8391 26.8375 26.3199 32.7326 16.5063 32.7326ZM5.30556 28.1206C4.75073 28.1206 4.19589 27.8778 3.77976 27.427C1.31769 24.5835 0 20.8731 0 16.6425V7.83451C0 6.72485 0.901578 5.82324 2.01124 5.82324C3.12091 5.82324 4.02253 6.72485 4.02253 7.83451V16.6425C4.02253 19.9021 4.99349 22.711 6.79669 24.7916C7.52491 25.6238 7.45556 26.9069 6.62331 27.6351C6.24186 27.9819 5.75636 28.1206 5.30556 28.1206Z" style="fill: rgb(182, 245, 0);"/>
  <path d="M4.37276 35.1255C3.95666 35.1255 3.54056 34.9868 3.15913 34.7441C2.56965 34.2933 2.25755 33.5998 2.36158 32.8716L3.29784 25.9019C3.43654 24.7923 4.4768 24.0294 5.55173 24.1681C6.66134 24.3068 7.4242 25.3124 7.2855 26.422L6.8347 29.7855L10.4756 28.1211C11.4812 27.6703 12.6601 28.1211 13.1456 29.1267C13.5964 30.1323 13.1456 31.3112 12.14 31.7967L5.20498 34.9521C4.92758 35.0908 4.65017 35.1255 4.37276 35.1255Z" style="fill: rgb(182, 245, 0);"/>
  <path d="M30.9331 4.02233C32.0438 4.02233 32.9442 3.1219 32.9442 2.01117C32.9442 0.90043 32.0438 0 30.9331 0C29.8223 0 28.9219 0.90043 28.9219 2.01117C28.9219 3.1219 29.8223 4.02233 30.9331 4.02233Z" style="fill: rgb(182, 245, 0);"/>
  <path d="M30.9331 13.5231C29.8234 13.5231 28.9219 12.6215 28.9219 11.5119V7.9057C28.9219 6.79609 29.8234 5.89453 30.9331 5.89453C32.0427 5.89453 32.9442 6.79609 32.9442 7.9057V11.5466C32.9096 12.6562 32.0427 13.5231 30.9331 13.5231Z" style="fill: rgb(182, 245, 0);"/>
</svg>