<?xml version="1.0" encoding="utf-8"?>
<svg width="35" height="42" viewBox="0 0 35 42" fill="none" xmlns="http://www.w3.org/2000/svg">
  <path d="M11.6681 22.6275C11.9036 22.622 12.1281 22.6601 12.3362 22.7326C12.077 22.7707 11.816 22.7924 11.544 22.7924C11.3487 22.7924 11.1552 22.7797 10.9653 22.7598C11.1661 22.6782 11.387 22.6347 11.6188 22.6275H11.6681Z" fill="#0055B8"/>
  <path d="M11.7901 21.2416C11.7773 21.2434 11.7609 21.2452 11.7481 21.247C11.5035 21.2833 11.2552 21.3014 10.9997 21.3014C10.8025 21.3014 10.6127 21.2887 10.4229 21.2688C10.6236 21.1872 10.8427 21.1437 11.0745 21.1365H11.1932C11.226 21.1365 11.2607 21.1383 11.2917 21.1419C11.3191 21.1437 11.3465 21.1455 11.3739 21.1492C11.4159 21.1528 11.4597 21.16 11.5017 21.1673C11.5363 21.1727 11.5692 21.18 11.6021 21.1872C11.6258 21.1927 11.6459 21.1981 11.6696 21.2035C11.6714 21.2035 11.6751 21.2054 11.6769 21.2054C11.6805 21.2072 11.686 21.2072 11.6897 21.209L11.6915 21.2108C11.697 21.2108 11.7024 21.2126 11.7061 21.2144C11.7371 21.2217 11.7627 21.2307 11.7901 21.2416Z" fill="#F7A81E"/>
  <path d="M31.2749 1.96845C31.0358 1.73282 30.782 1.51169 30.5192 1.3123C30.1158 1.00779 29.6868 0.743155 29.2359 0.529271C28.3616 0.181257 27.4178 0 26.4486 0H7.63795C3.47789 0 0.0516383 3.29163 0.000527492 7.34092C-0.0232025 9.36737 0.754411 11.2688 2.19282 12.6971C2.50678 13.0088 2.84448 13.2898 3.20043 13.5381C3.41035 13.6831 3.62757 13.8191 3.85027 13.9441C4.02003 13.9949 4.20074 14.0221 4.38693 14.0221C5.04407 14.0221 5.62455 13.6922 5.96772 13.1901C5.96955 13.1901 5.96954 13.1865 5.9732 13.1828C6.00423 13.1393 6.03161 13.0922 6.05899 13.0487C6.06081 13.0415 6.06446 13.0342 6.07177 13.027C6.21597 12.7623 6.29994 12.4506 6.29994 12.1243C6.29994 11.4228 5.91296 10.8029 5.33796 10.4785C5.32518 10.4694 5.3124 10.464 5.29963 10.4567C5.29598 10.4567 5.29597 10.4567 5.29232 10.4531C4.97653 10.2827 4.68447 10.0707 4.42526 9.80964C3.71884 9.10818 3.33734 8.1747 3.34829 7.1796C3.37384 5.19302 5.08423 3.57983 7.16882 3.57983H25.8736C26.5216 3.57983 27.1586 3.72665 27.7209 4.0221C27.9563 4.10729 28.1845 4.21604 28.3999 4.34655C28.6135 4.47524 28.8124 4.6275 28.9968 4.80332C29.727 5.50297 30.1267 6.43101 30.1267 7.43336V7.48411C30.0993 9.47975 28.3652 11.1056 26.2642 11.0857C24.9645 11.073 23.7762 11.5334 22.8471 12.3037C22.1041 12.92 21.5291 13.7339 21.2006 14.6619C21.0016 15.2274 20.8921 15.8328 20.8921 16.4618V32.8275C20.8921 33.8679 20.485 34.8431 19.7439 35.5735C18.9608 36.3511 17.9058 36.7608 16.7941 36.7136C16.2227 36.6883 15.6879 36.5378 15.2097 36.2877C15.0691 36.2388 14.934 36.1808 14.8026 36.1155C13.4792 35.4612 12.5829 34.0691 12.5829 32.5121V22.7822C12.5829 22.1351 12.2507 21.5714 11.7505 21.2397C11.7633 21.2379 11.7798 21.2361 11.7925 21.2343C11.7651 21.2234 11.7378 21.2162 11.7086 21.2071C11.7031 21.2053 11.6958 21.2035 11.6921 21.2017C11.6885 21.1998 11.683 21.1998 11.6794 21.198C11.6775 21.198 11.6739 21.1962 11.6721 21.1962C11.6483 21.189 11.6282 21.1835 11.6045 21.1799C11.5698 21.1708 11.537 21.1654 11.5041 21.16C11.4621 21.1509 11.4183 21.1455 11.3763 21.1418C11.349 21.1382 11.3216 21.1364 11.2942 21.1346C11.2613 21.131 11.2285 21.1292 11.1956 21.1292H11.077C10.8452 21.1364 10.6261 21.1799 10.4253 21.2615C9.72802 21.5334 9.23881 22.2058 9.23881 22.9889V32.6535C9.23881 35.3343 10.5933 37.7468 12.6687 39.1697C12.9918 39.3926 13.3332 39.5884 13.6909 39.7606C14.5416 40.0995 15.467 40.2899 16.4381 40.2989C16.8361 40.3025 17.2285 40.2772 17.6155 40.221C19.2602 39.989 20.7789 39.2349 21.9709 38.0513C23.433 36.6013 24.2417 34.6709 24.2417 32.619V16.2588C24.2417 15.3761 24.97 14.6764 25.8571 14.6746C27.9308 14.6673 29.8182 13.8462 31.1946 12.5212C31.2895 12.4288 31.3844 12.3346 31.4739 12.2385C31.9704 11.7092 32.3902 11.1111 32.7151 10.4585C33.1879 9.50875 33.4599 8.4484 33.4745 7.32823C33.4946 5.3054 32.7188 3.40039 31.2749 1.96845Z" style="fill: rgb(182, 245, 0);"/>
  <circle cx="10.5044" cy="16.7932" r="2" style="fill: rgb(182, 245, 0);"/>
  <path d="M15.1487 9.87726C15.0027 9.9407 14.7215 10.064 14.5354 10.1383C14.539 10.2923 14.5408 10.5117 14.5408 10.6041V12.8716C14.5408 12.9405 14.5481 12.9931 14.6193 13.033C14.9662 13.2088 15.1122 13.506 15.1122 13.8867C15.1085 14.2891 15.1085 14.6951 15.1085 15.1029C15.1085 15.1899 15.1085 15.2225 15.0702 15.2334C15.0483 15.2443 15.0154 15.2443 14.9643 15.2443H13.8344C13.8344 14.8365 13.8344 14.4323 13.8362 14.0244C13.8362 13.9066 13.8545 13.7997 13.8947 13.7036C13.9604 13.5133 14.0991 13.3628 14.3054 13.2559C14.3802 13.216 14.4131 13.1689 14.4131 13.0837C14.4094 12.2916 14.4094 11.4995 14.4094 10.7074C14.4094 10.6766 14.4076 10.6476 14.4039 10.6095C14.3565 10.6259 14.3163 10.6422 14.2816 10.6567C14.1666 10.7056 14.0535 10.7545 13.9385 10.8017V10.499C13.9385 10.4682 13.9348 10.4392 13.9312 10.4011C13.8837 10.4174 13.8435 10.4337 13.8089 10.4482C13.4803 10.5896 13.1572 10.7255 12.8286 10.8669V13.158C12.2354 12.868 11.5819 12.6868 10.8919 12.6378C10.7678 12.6287 10.64 12.6251 10.514 12.6251C9.8642 12.6251 9.24539 12.7429 8.67039 12.955V11.0808C8.51341 11.0137 8.3546 10.9467 8.19762 10.8796C7.74675 10.6875 7.29588 10.4972 6.84318 10.305C6.67707 10.2343 6.51096 10.1637 6.34668 10.093C6.32477 10.0821 6.30469 10.0712 6.27549 10.0549C6.26271 10.0458 6.24628 10.0404 6.22803 10.0295C6.29192 9.99871 6.33207 9.97877 6.37406 9.96064C6.61136 9.85914 6.85048 9.75763 7.09143 9.65613C7.18818 9.61625 7.28493 9.57275 7.38167 9.53288L7.38349 9.53106C8.52801 9.04348 9.67436 8.55409 10.8207 8.06469C10.9138 8.02482 10.9978 8.00488 11.0982 8.04657C11.8703 8.37645 12.6406 8.70634 13.4109 9.03442C14.0279 9.29724 14.6467 9.55825 15.2619 9.82107C15.2655 9.82289 15.2673 9.8247 15.271 9.82651C15.2217 9.84826 15.1797 9.86639 15.1487 9.87726Z" style="fill: rgb(182, 245, 0);"/>
</svg>