<?xml version="1.0" encoding="utf-8"?>
<svg width="38" height="38" viewBox="0 0 38 38" fill="none" xmlns="http://www.w3.org/2000/svg">
  <path d="M18.9752 37.867C16.2318 37.867 13.4883 37.2488 10.8994 36.051C6.30125 33.8871 2.82367 30.1004 1.12351 25.309C-0.0356967 22.1019 -0.306177 18.6629 0.350704 15.3399C0.582545 14.1807 1.70311 13.4079 2.86231 13.6397C4.02151 13.8716 4.79428 14.9921 4.56244 16.1513C4.06011 18.7402 4.29199 21.4064 5.18071 23.8793C6.49448 27.5501 9.19927 30.5254 12.7542 32.187C16.309 33.8485 20.289 34.0417 23.9984 32.7279C25.7759 32.1097 27.3601 31.1437 28.7512 29.9072C29.9104 28.9025 30.8764 27.7047 31.6492 26.3909C32.6152 24.7294 33.272 22.9133 33.5425 21.02C33.8903 18.6243 33.6584 16.19 32.847 13.9102C31.7264 10.7803 29.6399 8.19146 26.8192 6.45266C25.8145 5.83442 25.5054 4.52065 26.1236 3.51601C26.7419 2.51137 28.0556 2.20225 29.0603 2.82049C32.6924 5.10026 35.3973 8.4233 36.8656 12.4805C37.9089 15.4172 38.2566 18.5856 37.7929 21.6768C37.4451 24.1112 36.5951 26.4296 35.3586 28.5934C34.354 30.2936 33.0788 31.8392 31.6105 33.1143C29.7944 34.6986 27.7465 35.935 25.4668 36.7851C23.3029 37.4806 21.139 37.867 18.9752 37.867Z" style="fill: rgb(182, 245, 0);"/>
  <path d="M18.9781 4.63681C20.2585 4.63681 21.2965 3.59882 21.2965 2.3184C21.2965 1.03799 20.2585 0 18.9781 0C17.6977 0 16.6597 1.03799 16.6597 2.3184C16.6597 3.59882 17.6977 4.63681 18.9781 4.63681Z" style="fill: rgb(182, 245, 0);"/>
  <path d="M10.3597 6.37638C11.256 6.37638 11.9826 5.64979 11.9826 4.7535C11.9826 3.85721 11.256 3.13062 10.3597 3.13062C9.46339 3.13062 8.73682 3.85721 8.73682 4.7535C8.73682 5.64979 9.46339 6.37638 10.3597 6.37638Z" style="fill: rgb(182, 245, 0);"/>
  <path d="M4.48581 10.7802C4.95529 10.7802 5.33587 10.3996 5.33587 9.93016C5.33587 9.46067 4.95529 9.08008 4.48581 9.08008C4.01632 9.08008 3.63574 9.46067 3.63574 9.93016C3.63574 10.3996 4.01632 10.7802 4.48581 10.7802Z" style="fill: rgb(182, 245, 0);"/>
  <path d="M17.2709 26.2355C16.8845 26.1969 16.5368 26.0423 16.2277 25.7718L9.77476 20.3622C8.92468 19.6281 8.80877 18.3143 9.54293 17.4642C10.2771 16.5755 11.5909 16.4982 12.4409 17.2324L17.3483 21.3669L25.3081 12.3637C26.0423 11.5136 27.356 11.4364 28.2061 12.1705C29.0562 12.9047 29.1335 14.2184 28.3993 15.0685L19.1257 25.54C18.6234 26.0809 17.9278 26.3128 17.2709 26.2355Z" style="fill: rgb(182, 245, 0);"/>
</svg>