<?xml version="1.0" encoding="utf-8"?>
<svg width="41" height="41" viewBox="0 0 41 41" fill="none" xmlns="http://www.w3.org/2000/svg">
  <path d="M22.198 22.6797L21.1699 23.3449C19.7789 24.2521 18.0855 24.0707 17.2993 22.8006C16.4526 21.5306 17.0574 19.9582 18.4484 18.9905L19.7184 18.1438C20.928 17.2972 21.5328 16.5714 21.5328 15.5433C21.5328 14.4547 20.6861 13.608 19.537 13.608C17.2993 13.608 16.8155 15.7852 14.6988 15.7852C13.0054 15.7852 12.1587 14.6361 12.1587 13.3056C12.1587 10.7051 15.6664 7.9231 19.7789 7.9231C24.8591 7.9231 27.5201 11.4308 27.5201 15.12C27.5201 18.0229 26.25 20.0791 22.198 22.6797ZM23.6495 29.3322C23.6495 31.3885 21.9561 33.0214 19.8999 33.0214C17.8436 33.0214 16.2107 31.3885 16.2107 29.3322C16.2107 27.276 17.8436 25.5826 19.8999 25.5826C21.9561 25.5826 23.6495 27.276 23.6495 29.3322Z" style="fill: rgb(182, 245, 0);"/>
  <path d="M34.9557 12.5194C33.988 12.5194 33.0204 12.2775 32.2342 11.8542L31.0851 12.0356L28.666 12.3985L29.936 9.37458C29.5127 8.52789 29.3313 7.62072 29.3313 6.65308C29.3313 3.26632 31.8108 0.665771 35.0767 0.665771C38.3425 0.665771 40.822 3.20584 40.822 6.65308C40.7011 9.97936 38.2215 12.5194 34.9557 12.5194Z" style="fill: rgb(182, 245, 0);"/>
  <path d="M39.3106 35.0167L37.2543 30.0575C38.7058 27.1546 39.4316 23.8887 39.4316 20.5625C39.4316 18.2643 39.1291 16.0871 38.4639 14.0309C37.4962 14.4542 36.4077 14.6961 35.3191 14.6961C35.2586 14.6961 35.2586 14.6961 35.1981 14.6961C35.8029 16.5105 36.1053 18.5062 36.1053 20.6229C36.1053 23.7073 35.3795 26.6707 33.9281 29.2713C33.6861 29.7551 33.6862 30.2994 33.8676 30.7227C33.9281 30.7832 33.9281 30.8437 33.9281 30.8437L36.1053 36.0448L33.8071 35.7424C33.7467 35.7424 33.6861 35.7424 33.6257 35.7424L29.0898 35.1376C28.727 35.0771 28.3641 35.1376 28.0012 35.3795C25.4612 36.8915 22.6792 37.6172 19.6553 37.6172C10.3417 37.6172 3.32628 30.2994 3.32628 20.5625C3.32628 10.7651 10.3417 3.32628 19.6553 3.32628C22.3768 3.32628 24.9774 3.99154 27.1546 5.14062C27.2755 3.99154 27.6989 2.90294 28.2432 1.93529C25.7031 0.665256 22.7397 0 19.6553 0C8.4669 0 0 8.82977 0 20.502C0 32.1137 8.4669 40.8225 19.6553 40.8225C23.0421 40.8225 26.3079 39.9758 29.1503 38.4034L33.3233 38.9477C33.3838 38.9477 33.3838 38.9477 33.4442 38.9477L35.6215 39.2501C36.831 39.4315 38.0405 38.9477 38.7663 37.9801C39.5525 37.1939 39.7339 36.0448 39.3106 35.0167Z" style="fill: rgb(182, 245, 0);"/>
</svg>